<svg xmlns="http://www.w3.org/2000/svg" width="512pt" height="512pt" viewBox="-6 0 512 512" id="bowl-rice"><path fill="#e3ddd9" d="M169.28125 155.589844h31v31h-31zm0 0M218.78125 121.300781h31v31h-31zm0 0"></path><path fill="#e3ddd9" d="m448.957031 211.964844c-1.738281-16.871094-10.972656-32.550782-25.695312-42.066406-7.246094-4.683594-11.832031-12.625-12.265625-21.242188-.84375-16.789062-8.832032-31.566406-21.003906-41.410156l80.292968-107.246094h-37.476562l-71.203125 95.105469c-1.511719-.195313-3.039063-.347657-4.585938-.425781-8.617187-.433594-16.558593-5.015626-21.242187-12.265626-2.351563-3.636718-5.050782-6.910156-8.019532-9.824218l32.53125-72.589844h-32.875l-25.980468 57.964844c-12.828125-3.113282-26.757813-1.773438-39.386719 4.695312-7.683594 3.933594-16.851563 3.933594-24.53125 0-26.109375-13.375-57.808594-4.882812-73.730469 19.757813-4.683594 7.246093-12.625 11.832031-21.246094 12.265625-29.296874 1.46875-52.503906 24.675781-53.972656 53.972656-.433594 8.617188-5.019531 16.5625-12.265625 21.242188-14.726562 9.519531-23.957031 25.195312-25.695312 42.066406h-50.605469v15c0 46.996094 13.128906 92.789062 37.96875 132.433594 22.5 35.914062 53.703125 65.488281 90.609375 86.003906v66.597656h242.402344v-66.597656c36.910156-20.515625 68.113281-50.089844 90.613281-86.003906 24.839844-39.644532 37.96875-85.4375 37.96875-132.433594v-15zm-356.371093-16.867188c15.328124-9.910156 25.027343-26.707031 25.941406-44.9375.695312-13.851562 11.667968-24.820312 25.519531-25.515625 18.226563-.917969 35.027344-10.613281 44.933594-25.945312 7.527343-11.648438 22.511719-15.660157 34.859375-9.339844 16.242187 8.324219 35.640625 8.324219 51.886718 0 12.339844-6.324219 27.328126-2.308594 34.855469 9.339844 7.273438 11.257812 18.273438 19.460937 30.816407 23.394531l-34.375 45.917969 24.015624 17.976562 40.933594-54.671875c5.265625 4.636719 8.683594 11.3125 9.0625 18.84375.914063 18.230469 10.613282 35.027344 25.941406 44.933594 6.074219 3.925781 10.175782 10.070312 11.667969 16.867188h-337.726562c1.492187-6.796876 5.59375-12.941407 11.667969-16.863282zm258.195312 46.867188v37.382812h-86v-37.382812zm-116 0v37.382812h-86v-37.382812zm-198.503906 37.382812c-2.957032-12.152344-4.917969-24.648437-5.773438-37.382812h88.277344v37.382812zm304.703125 202.652344h-182.402344v-30.601562h182.40625v30.601562zm11.347656-60.601562h-205.09375c-46.953125-24.789063-82.292969-64.695313-101.347656-112.050782h407.792969c-19.058594 47.355469-54.402344 87.261719-101.351563 112.050782zm110.957031-142.050782h-82.503906v-37.382812h88.277344c-.855469 12.734375-2.816406 25.230468-5.773438 37.382812zm0 0"></path></svg>